#N canvas 834 121 742 492 10;
#X obj 214 210 tabread \$2-bark-bounds;
#X obj 384 210 tabread \$2-bark-bounds;
#X obj 384 160 f \$1;
#X obj 214 281 convFreq2bin \$3 \$4;
#X obj 384 280 convFreq2bin \$3 \$4;
#X obj 341 27 inlet;
#X obj 214 180 + 1;
#X obj 214 160 f \$1;
#X obj 214 382 -;
#X obj 214 403 + 1;
#X obj 62 237 f;
#X obj 62 299 until;
#X obj 62 350 f;
#X obj 92 351 + 1;
#X obj 62 381 t b f;
#X obj 62 402 f;
#X obj 62 86 change;
#X text 115 85 << only take action if this band's value has changed
;
#X text 502 36 \$1: band ID \; \$2: dollar-zero of parent \; \$3: sampling
rate of IR signal \; \$4: initial window size \;;
#X text 530 163 Actual analysis window size inside [convolve~] is the
number of samples in the IR signal itself. This is because a gigantic
FFT is done on the entire IR signal for FFT filtering., f 26;
#X obj 489 122 r \$2-IR-numSamps;
#X obj 62 436 tabwrite \$2-bin-scalars;
#X floatatom 509 143 10 0 0 0 - - -, f 10;
#X floatatom 396 246 10 0 0 0 - - -, f 10;
#X floatatom 234 243 10 0 0 0 - - -, f 10;
#X floatatom 406 346 10 0 0 0 - - -, f 10;
#X floatatom 244 343 10 0 0 0 - - -, f 10;
#X obj 62 65 tabread \$2-24-band-eq;
#X obj 62 16 r \$2-update-eq;
#X obj 62 37 f \$1;
#X obj 62 110 t b b f b b;
#X obj 18 170 s \$2-send-eq-list;
#X connect 0 0 3 0;
#X connect 0 0 24 0;
#X connect 1 0 4 0;
#X connect 1 0 23 0;
#X connect 2 0 1 0;
#X connect 3 0 8 0;
#X connect 3 0 26 0;
#X connect 4 0 8 1;
#X connect 4 0 12 1;
#X connect 4 0 25 0;
#X connect 6 0 0 0;
#X connect 7 0 6 0;
#X connect 8 0 9 0;
#X connect 9 0 10 1;
#X connect 10 0 11 0;
#X connect 11 0 12 0;
#X connect 12 0 13 0;
#X connect 12 0 14 0;
#X connect 13 0 12 1;
#X connect 14 0 15 0;
#X connect 14 1 21 1;
#X connect 15 0 21 0;
#X connect 16 0 30 0;
#X connect 20 0 4 2;
#X connect 20 0 3 2;
#X connect 20 0 22 0;
#X connect 27 0 16 0;
#X connect 28 0 29 0;
#X connect 29 0 27 0;
#X connect 30 0 31 0;
#X connect 30 1 10 0;
#X connect 30 2 15 1;
#X connect 30 3 7 0;
#X connect 30 4 2 0;
