#N canvas 594 81 742 492 10;
#X obj 489 131 r \$2-convolve;
#X obj 489 152 route window;
#X obj 214 210 tabread \$2-bark-bounds;
#X obj 384 210 tabread \$2-bark-bounds;
#X obj 384 160 f \$1;
#X obj 77 436 tabwrite \$2-eq-scalars;
#X obj 489 173 * 2;
#X text 502 36 \$1: band ID \; \$2: dollar-zero of parent \; \$3: sampling
rate \; \$4: initial window size \;;
#X obj 214 281 convFreq2bin \$3 \$4;
#X obj 384 280 convFreq2bin \$3 \$4;
#X obj 341 27 inlet;
#X obj 214 180 + 1;
#X obj 214 160 f \$1;
#X obj 214 382 -;
#X obj 214 403 + 1;
#X obj 77 237 f;
#X obj 77 299 until;
#X obj 77 350 f;
#X obj 107 351 + 1;
#X obj 77 381 t b f;
#X obj 77 402 f;
#X obj 26 156 s \$2-send-eq-list;
#X obj 62 106 t b b f b b;
#X obj 62 65 tabread \$2-24-band-eq;
#X obj 62 16 r \$2-update-eq;
#X obj 62 37 f \$1;
#X obj 62 86 change;
#X text 528 172 Actual analysis window size inside [convolve~] is twice
the partition size \, so to find the bin number of a given frequency
we must calculate frequency to bin number using N*2, f 26;
#X text 115 85 << only take action if this band's value has changed
;
#X connect 0 0 1 0;
#X connect 1 0 6 0;
#X connect 2 0 8 0;
#X connect 3 0 9 0;
#X connect 4 0 3 0;
#X connect 6 0 8 2;
#X connect 6 0 9 2;
#X connect 8 0 13 0;
#X connect 9 0 13 1;
#X connect 9 0 17 1;
#X connect 11 0 2 0;
#X connect 12 0 11 0;
#X connect 13 0 14 0;
#X connect 14 0 15 1;
#X connect 15 0 16 0;
#X connect 16 0 17 0;
#X connect 17 0 18 0;
#X connect 17 0 19 0;
#X connect 18 0 17 1;
#X connect 19 0 20 0;
#X connect 19 1 5 1;
#X connect 20 0 5 0;
#X connect 22 0 21 0;
#X connect 22 1 15 0;
#X connect 22 2 20 1;
#X connect 22 3 12 0;
#X connect 22 4 4 0;
#X connect 23 0 26 0;
#X connect 24 0 25 0;
#X connect 25 0 23 0;
#X connect 26 0 22 0;
